<svg width="33" height="22" viewBox="0 0 33 22" version="1.1" xmlns="http://www.w3.org/2000/svg" xmlns:xlink="http://www.w3.org/1999/xlink">
<title>Arrow</title>
<desc>Created using Figma</desc>
<g id="Canvas" transform="translate(-5570 -1573)">
<g id="Arrow">
<use xlink:href="#path0_stroke" transform="translate(5571 1574)" fill="#FBFBFB"/>
</g>
</g>
<defs>
<path id="path0_stroke" d="M 0 9C -0.552285 9 -1 9.44771 -1 10C -1 10.5523 -0.552285 11 0 11L 0 9ZM 30 10L 30.7071 10.7071L 31.4142 10L 30.7071 9.29289L 30 10ZM 20.7071 -0.707107C 20.3166 -1.09763 19.6834 -1.09763 19.2929 -0.707107C 18.9024 -0.316583 18.9024 0.316583 19.2929 0.707107L 20.7071 -0.707107ZM 19.2929 19.2929C 18.9024 19.6834 18.9024 20.3166 19.2929 20.7071C 19.6834 21.0976 20.3166 21.0976 20.7071 20.7071L 19.2929 19.2929ZM 0 11L 30 11L 30 9L 0 9L 0 11ZM 30.7071 9.29289L 20.7071 -0.707107L 19.2929 0.707107L 29.2929 10.7071L 30.7071 9.29289ZM 29.2929 9.29289L 19.2929 19.2929L 20.7071 20.7071L 30.7071 10.7071L 29.2929 9.29289Z"/>
</defs>
</svg>
