<svg xmlns="http://www.w3.org/2000/svg" xmlns:xlink="http://www.w3.org/1999/xlink" width="607" height="691" viewBox="0 0 607 691" version="1.1"><title>Group 4</title><desc>Created using Figma</desc><g id="Canvas" transform="translate(-7678 -513)"><g id="Group 4"><g id="Group 2"><g id="Ellipse 2"><use xlink:href="#path0_fill" transform="translate(8168.37 874)" fill="#4A4D51"/><mask id="mask0_outline_ins"><use xlink:href="#path0_fill" fill="white" transform="translate(8168.37 874)"/></mask><g mask="url(#mask0_outline_ins)"><use xlink:href="#path1_stroke_2x" transform="translate(8168.37 874)" fill="url(#paint1_linear)"/></g></g><g id="Ellipse 2.1"><use xlink:href="#path0_fill" transform="translate(8106.37 751)" fill="#4A4D51"/><mask id="mask1_outline_ins"><use xlink:href="#path0_fill" fill="white" transform="translate(8106.37 751)"/></mask><g mask="url(#mask1_outline_ins)"><use xlink:href="#path1_stroke_2x" transform="translate(8106.37 751)" fill="url(#paint3_linear)"/></g></g><g id="Ellipse 2.11"><use xlink:href="#path0_fill" transform="translate(8201.37 688)" fill="#4A4D51"/><mask id="mask2_outline_ins"><use xlink:href="#path0_fill" fill="white" transform="translate(8201.37 688)"/></mask><g mask="url(#mask2_outline_ins)"><use xlink:href="#path1_stroke_2x" transform="translate(8201.37 688)" fill="url(#paint5_linear)"/></g></g><g id="Ellipse 2.2"><use xlink:href="#path0_fill" transform="translate(7921.53 780.093)" fill="#4A4D51"/><mask id="mask3_outline_ins"><use xlink:href="#path0_fill" fill="white" transform="translate(7921.53 780.093)"/></mask><g mask="url(#mask3_outline_ins)"><use xlink:href="#path1_stroke_2x" transform="translate(7921.53 780.093)" fill="url(#paint7_linear)"/></g></g><g id="Ellipse 2.3"><use xlink:href="#path0_fill" transform="translate(7852.37 810)" fill="#4A4D51"/><mask id="mask4_outline_ins"><use xlink:href="#path0_fill" fill="white" transform="translate(7852.37 810)"/></mask><g mask="url(#mask4_outline_ins)"><use xlink:href="#path1_stroke_2x" transform="translate(7852.37 810)" fill="url(#paint9_linear)"/></g></g><g id="Ellipse 2.4"><use xlink:href="#path0_fill" transform="translate(7907.37 716)" fill="#4A4D51"/><mask id="mask5_outline_ins"><use xlink:href="#path0_fill" fill="white" transform="translate(7907.37 716)"/></mask><g mask="url(#mask5_outline_ins)"><use xlink:href="#path1_stroke_2x" transform="translate(7907.37 716)" fill="url(#paint11_linear)"/></g></g><g id="Ellipse 2.17"><use xlink:href="#path0_fill" transform="translate(7858.37 621)" fill="#4A4D51"/><mask id="mask6_outline_ins"><use xlink:href="#path0_fill" fill="white" transform="translate(7858.37 621)"/></mask><g mask="url(#mask6_outline_ins)"><use xlink:href="#path1_stroke_2x" transform="translate(7858.37 621)" fill="url(#paint13_linear)"/></g></g><g id="Ellipse 2.5"><use xlink:href="#path0_fill" transform="translate(7765.37 939)" fill="#4A4D51"/><mask id="mask7_outline_ins"><use xlink:href="#path0_fill" fill="white" transform="translate(7765.37 939)"/></mask><g mask="url(#mask7_outline_ins)"><use xlink:href="#path1_stroke_2x" transform="translate(7765.37 939)" fill="url(#paint15_linear)"/></g></g><g id="Ellipse 2.6"><use xlink:href="#path0_fill" transform="translate(8261.37 911)" fill="#4A4D51"/><mask id="mask8_outline_ins"><use xlink:href="#path0_fill" fill="white" transform="translate(8261.37 911)"/></mask><g mask="url(#mask8_outline_ins)"><use xlink:href="#path1_stroke_2x" transform="translate(8261.37 911)" fill="url(#paint17_linear)"/></g></g><g id="Ellipse 2.10"><use xlink:href="#path0_fill" transform="translate(7798.23 513)" fill="#4A4D51"/><mask id="mask9_outline_ins"><use xlink:href="#path0_fill" fill="white" transform="translate(7798.23 513)"/></mask><g mask="url(#mask9_outline_ins)"><use xlink:href="#path1_stroke_2x" transform="translate(7798.23 513)" fill="url(#paint19_linear)"/></g></g><g id="Ellipse 2.13"><use xlink:href="#path0_fill" transform="translate(7907.37 951)" fill="#4A4D51"/><mask id="mask10_outline_ins"><use xlink:href="#path0_fill" fill="white" transform="translate(7907.37 951)"/></mask><g mask="url(#mask10_outline_ins)"><use xlink:href="#path1_stroke_2x" transform="translate(7907.37 951)" fill="url(#paint21_linear)"/></g></g><g id="Ellipse 2.14"><use xlink:href="#path0_fill" transform="translate(8145.37 1017)" fill="#4A4D51"/><mask id="mask11_outline_ins"><use xlink:href="#path0_fill" fill="white" transform="translate(8145.37 1017)"/></mask><g mask="url(#mask11_outline_ins)"><use xlink:href="#path1_stroke_2x" transform="translate(8145.37 1017)" fill="url(#paint23_linear)"/></g></g><g id="Ellipse 2.15"><use xlink:href="#path0_fill" transform="translate(8272.37 754)" fill="#4A4D51"/><mask id="mask12_outline_ins"><use xlink:href="#path0_fill" fill="white" transform="translate(8272.37 754)"/></mask><g mask="url(#mask12_outline_ins)"><use xlink:href="#path1_stroke_2x" transform="translate(8272.37 754)" fill="url(#paint25_linear)"/></g></g><g id="Ellipse 2.12"><use xlink:href="#path0_fill" transform="translate(8033.37 596)" fill="#4A4D51"/><mask id="mask13_outline_ins"><use xlink:href="#path0_fill" fill="white" transform="translate(8033.37 596)"/></mask><g mask="url(#mask13_outline_ins)"><use xlink:href="#path1_stroke_2x" transform="translate(8033.37 596)" fill="url(#paint27_linear)"/></g></g><g id="Line"><use xlink:href="#path2_stroke" transform="matrix(0.918195 0.396129 -0.396129 0.918195 7806.37 521)" fill="#4A4D51"/></g><g id="Line"><use xlink:href="#path3_stroke" transform="matrix(0.995495 -0.0948091 0.0948091 0.995495 7913.37 722)" fill="#4A4D51"/></g><g id="Line"><use xlink:href="#path4_stroke" transform="matrix(0.174691 -0.984623 0.984623 0.174691 8174.37 880)" fill="#4A4D51"/></g><g id="Line"><use xlink:href="#path5_stroke" transform="matrix(-0.99971 -0.0240894 0.0240894 -0.99971 8278.37 760)" fill="#4A4D51"/></g><g id="Line"><use xlink:href="#path6_stroke" transform="matrix(-0.695795 -0.71824 0.71824 -0.695795 8267.37 917)" fill="#4A4D51"/></g><g id="Line"><use xlink:href="#path7_stroke" transform="matrix(-0.434816 0.900519 -0.900519 -0.434816 8278.37 760)" fill="#4A4D51"/></g><g id="Line"><use xlink:href="#path8_stroke" transform="matrix(0.149013 0.988835 -0.988835 0.149013 8111.37 757)" fill="#4A4D51"/></g><g id="Line"><use xlink:href="#path9_stroke" transform="matrix(0.69035 0.723475 -0.725639 0.688076 7927.27 787.958)" fill="#4A4D51"/></g><g id="Line"><use xlink:href="#path10_stroke" transform="matrix(-0.926224 0.376973 -0.376973 -0.926224 7927.27 787.958)" fill="#4A4D51"/></g><g id="Line"><use xlink:href="#path11_stroke" transform="matrix(-0.362725 -0.931896 0.931896 -0.362725 7913.22 956.918)" fill="#4A4D51"/></g><g id="Line"><use xlink:href="#path12_stroke" transform="matrix(-0.996489 -0.0837248 0.0837248 -0.996489 7913.22 956.918)" fill="#4A4D51"/></g><g id="Line"><use xlink:href="#path13_stroke" transform="matrix(-0.559142 0.829072 -0.829072 -0.559142 7858.37 816)" fill="#4A4D51"/></g><g id="Line"><use xlink:href="#path14_stroke" transform="matrix(-0.874641 0.484771 -0.484772 -0.874641 8112.37 756)" fill="#4A4D51"/></g><g id="Line"><use xlink:href="#path15_stroke" transform="matrix(-0.428338 -0.903618 0.903618 -0.428338 8112.37 756)" fill="#4A4D51"/></g><g id="Line"><use xlink:href="#path16_stroke" transform="matrix(-0.887158 -0.461465 0.461465 -0.887158 8112.37 756)" fill="#4A4D51"/></g><g id="Line"><use xlink:href="#path17_stroke" transform="matrix(-0.458405 -0.888744 0.888744 -0.458405 7913.37 722)" fill="#4A4D51"/></g><g id="Line"><use xlink:href="#path18_stroke" transform="matrix(-0.990611 -0.136708 0.136708 -0.990611 7913.37 722)" fill="#4A4D51"/></g><g id="Line"><use xlink:href="#path19_stroke" transform="matrix(0.728431 -0.685119 0.685119 0.728431 7679.37 801)" fill="#4A4D51"/></g><g id="Line"><use xlink:href="#path20_stroke" transform="matrix(-0.178885 -0.98387 0.98387 -0.178885 7858.37 816)" fill="#4A4D51"/></g></g><g id="Group 3"><g id="Obelisk"><g id="Rectangle 3.3"><use xlink:href="#path21_fill" transform="translate(7980.37 747)" fill="url(#paint47_linear)"/><use xlink:href="#path21_fill" transform="translate(7980.37 747)" fill="url(#paint48_linear)"/></g><g id="Rectangle 3.2"><use xlink:href="#path22_stroke" transform="translate(7980.37 747)" fill="url(#paint49_linear)"/></g></g><g id="Obelisk"><g id="Rectangle 3.3"><use xlink:href="#path23_fill" transform="matrix(-1 0 0 1 7910.37 903)" fill="url(#paint50_linear)"/><use xlink:href="#path23_fill" transform="matrix(-1 0 0 1 7910.37 903)" fill="url(#paint51_linear)"/></g><g id="Rectangle 3.2"><use xlink:href="#path24_stroke" transform="matrix(-1 0 0 1 7910.37 903)" fill="url(#paint52_linear)"/></g></g><g id="Obelisk"><g id="Rectangle 3.3"><use xlink:href="#path23_fill" transform="matrix(-1 0 0 1 8198.37 903)" fill="url(#paint53_linear)"/><use xlink:href="#path23_fill" transform="matrix(-1 0 0 1 8198.37 903)" fill="url(#paint54_linear)"/></g><g id="Rectangle 3.2"><use xlink:href="#path24_stroke" transform="matrix(-1 0 0 1 8198.37 903)" fill="url(#paint55_linear)"/></g></g></g></g></g><defs><linearGradient id="paint1_linear" x1="0" y1="0" x2="1" y2="0" gradientUnits="userSpaceOnUse" gradientTransform="matrix(7.34788e-16 12 -12 7.34788e-16 12 -7.34788e-16)"><stop offset="0" stop-color="#4A4D51"/></linearGradient><linearGradient id="paint3_linear" x1="0" y1="0" x2="1" y2="0" gradientUnits="userSpaceOnUse" gradientTransform="matrix(7.34788e-16 12 -12 7.34788e-16 12 -7.34788e-16)"><stop offset="0" stop-color="#4A4D51"/></linearGradient><linearGradient id="paint5_linear" x1="0" y1="0" x2="1" y2="0" gradientUnits="userSpaceOnUse" gradientTransform="matrix(7.34788e-16 12 -12 7.34788e-16 12 -7.34788e-16)"><stop offset="0" stop-color="#4A4D51"/></linearGradient><linearGradient id="paint7_linear" x1="0" y1="0" x2="1" y2="0" gradientUnits="userSpaceOnUse" gradientTransform="matrix(7.34788e-16 12 -12 7.34788e-16 12 -7.34788e-16)"><stop offset="0" stop-color="#4A4D51"/></linearGradient><linearGradient id="paint9_linear" x1="0" y1="0" x2="1" y2="0" gradientUnits="userSpaceOnUse" gradientTransform="matrix(7.34788e-16 12 -12 7.34788e-16 12 -7.34788e-16)"><stop offset="0" stop-color="#4A4D51"/></linearGradient><linearGradient id="paint11_linear" x1="0" y1="0" x2="1" y2="0" gradientUnits="userSpaceOnUse" gradientTransform="matrix(7.34788e-16 12 -12 7.34788e-16 12 -7.34788e-16)"><stop offset="0" stop-color="#4A4D51"/></linearGradient><linearGradient id="paint13_linear" x1="0" y1="0" x2="1" y2="0" gradientUnits="userSpaceOnUse" gradientTransform="matrix(7.34788e-16 12 -12 7.34788e-16 12 -7.34788e-16)"><stop offset="0" stop-color="#4A4D51"/></linearGradient><linearGradient id="paint15_linear" x1="0" y1="0" x2="1" y2="0" gradientUnits="userSpaceOnUse" gradientTransform="matrix(7.34788e-16 12 -12 7.34788e-16 12 -7.34788e-16)"><stop offset="0" stop-color="#4A4D51"/></linearGradient><linearGradient id="paint17_linear" x1="0" y1="0" x2="1" y2="0" gradientUnits="userSpaceOnUse" gradientTransform="matrix(7.34788e-16 12 -12 7.34788e-16 12 -7.34788e-16)"><stop offset="0" stop-color="#4A4D51"/></linearGradient><linearGradient id="paint19_linear" x1="0" y1="0" x2="1" y2="0" gradientUnits="userSpaceOnUse" gradientTransform="matrix(7.34788e-16 12 -12 7.34788e-16 12 -7.34788e-16)"><stop offset="0" stop-color="#4A4D51"/></linearGradient><linearGradient id="paint21_linear" x1="0" y1="0" x2="1" y2="0" gradientUnits="userSpaceOnUse" gradientTransform="matrix(7.34788e-16 12 -12 7.34788e-16 12 -7.34788e-16)"><stop offset="0" stop-color="#4A4D51"/></linearGradient><linearGradient id="paint23_linear" x1="0" y1="0" x2="1" y2="0" gradientUnits="userSpaceOnUse" gradientTransform="matrix(7.34788e-16 12 -12 7.34788e-16 12 -7.34788e-16)"><stop offset="0" stop-color="#4A4D51"/></linearGradient><linearGradient id="paint25_linear" x1="0" y1="0" x2="1" y2="0" gradientUnits="userSpaceOnUse" gradientTransform="matrix(7.34788e-16 12 -12 7.34788e-16 12 -7.34788e-16)"><stop offset="0" stop-color="#4A4D51"/></linearGradient><linearGradient id="paint27_linear" x1="0" y1="0" x2="1" y2="0" gradientUnits="userSpaceOnUse" gradientTransform="matrix(7.34788e-16 12 -12 7.34788e-16 12 -7.34788e-16)"><stop offset="0" stop-color="#4A4D51"/></linearGradient><linearGradient id="paint47_linear" x1="0" y1="0" x2="1" y2="0" gradientUnits="userSpaceOnUse" gradientTransform="matrix(1.06208e-14 402 -85.5132 -1.46593e-13 91.2566 5.93354e-14)"><stop offset="0.61" stop-color="#1E2227"/><stop offset="1" stop-color="#2A2D32" stop-opacity="0"/></linearGradient><linearGradient id="paint48_linear" x1="0" y1="0" x2="1" y2="0" gradientUnits="userSpaceOnUse" gradientTransform="matrix(5.93954e-15 456 -97 2.79219e-14 97 -2.79219e-14)"><stop offset="0" stop-color="#FFFFFF" stop-opacity="0.02"/><stop offset="1" stop-color="#FFFFFF" stop-opacity="0"/></linearGradient><linearGradient id="paint49_linear" x1="0" y1="0" x2="1" y2="0" gradientUnits="userSpaceOnUse" gradientTransform="matrix(96.862 456.416 -97.0886 20.4989 49.1653 -10.6659)"><stop offset="0" stop-color="#0072FF"/><stop offset="1" stop-color="#00C3FF"/></linearGradient><linearGradient id="paint50_linear" x1="0" y1="0" x2="1" y2="0" gradientUnits="userSpaceOnUse" gradientTransform="matrix(5.58411e-15 213.342 -44.9605 -7.7797e-14 47.9803 3.14894e-14)"><stop offset="0.66" stop-color="#1E2227"/><stop offset="1" stop-color="#2A2D32" stop-opacity="0"/></linearGradient><linearGradient id="paint51_linear" x1="0" y1="0" x2="1" y2="0" gradientUnits="userSpaceOnUse" gradientTransform="matrix(3.12285e-15 242 -51 1.48182e-14 51 -1.48182e-14)"><stop offset="0" stop-color="#FFFFFF" stop-opacity="0.02"/><stop offset="1" stop-color="#FFFFFF" stop-opacity="0"/></linearGradient><linearGradient id="paint52_linear" x1="0" y1="0" x2="1" y2="0" gradientUnits="userSpaceOnUse" gradientTransform="matrix(50.9274 242.221 -51.0466 10.8788 25.8498 -5.66041)"><stop offset="0" stop-color="#0072FF"/><stop offset="1" stop-color="#00C3FF"/></linearGradient><linearGradient id="paint53_linear" x1="0" y1="0" x2="1" y2="0" gradientUnits="userSpaceOnUse" gradientTransform="matrix(5.58411e-15 213.342 -44.9605 -7.7797e-14 47.9803 3.14894e-14)"><stop offset="0.66" stop-color="#1E2227"/><stop offset="1" stop-color="#2A2D32" stop-opacity="0"/></linearGradient><linearGradient id="paint54_linear" x1="0" y1="0" x2="1" y2="0" gradientUnits="userSpaceOnUse" gradientTransform="matrix(3.12285e-15 242 -51 1.48182e-14 51 -1.48182e-14)"><stop offset="0" stop-color="#FFFFFF" stop-opacity="0.02"/><stop offset="1" stop-color="#FFFFFF" stop-opacity="0"/></linearGradient><linearGradient id="paint55_linear" x1="0" y1="0" x2="1" y2="0" gradientUnits="userSpaceOnUse" gradientTransform="matrix(50.9274 242.221 -51.0466 10.8788 25.8498 -5.66041)"><stop offset="0" stop-color="#0072FF"/><stop offset="1" stop-color="#00C3FF"/></linearGradient><path id="path0_fill" d="M12 6C12 9.31 9.31 12 6 12 2.69 12 0 9.31 0 6 0 2.69 2.69 0 6 0 9.31 0 12 2.69 12 6Z"/><path id="path1_stroke_2x" d="M10 6C10 8.21 8.21 10 6 10L6 14C10.42 14 14 10.42 14 6L10 6ZM6 10C3.79 10 2 8.21 2 6L-2 6C-2 10.42 1.58 14 6 14L6 10ZM2 6C2 3.79 3.79 2 6 2L6-2C1.58-2-2 1.58-2 6L2 6ZM6 2C8.21 2 10 3.79 10 6L14 6C14 1.58 10.42-2 6-2L6 2Z"/><path id="path2_stroke" d="M0 0L436.73 0 436.73-2 0-2 0 0Z"/><path id="path3_stroke" d="M0 0L295.33 0 295.33-2 0-2 0 0Z"/><path id="path4_stroke" d="M0 0L188.91 0 188.91-2 0-2 0 0Z"/><path id="path5_stroke" d="M0 0L166.05 0 166.05-2 0-2 0 0Z"/><path id="path6_stroke" d="M0 0L222.77 0 222.77-2 0-2 0 0Z"/><path id="path7_stroke" d="M0 0L291.92 0 291.92-2 0-2 0 0Z"/><path id="path8_stroke" d="M0 0L268.88 0 268.88-2 0-2 0 0Z"/><path id="path9_stroke" d="M0 0L324.72 0 324.72-2 0-2 0 0Z"/><path id="path10_stroke" d="M0 0L74.39 0 74.39-2 0-2 0 0Z"/><path id="path11_stroke" d="M0 0L151.22 0 151.22-2 0-2 0 0Z"/><path id="path12_stroke" d="M0 0L142.35 0 142.35-2 0-2 0 0Z"/><path id="path13_stroke" d="M0 0L155.6 0 155.6-2 0-2 0 0Z"/><path id="path14_stroke" d="M0 0L389.87 0 389.87-2 0-2 0 0Z"/><path id="path15_stroke" d="M0 0L170.43 0 170.43-2 0-2 0 0Z"/><path id="path16_stroke" d="M0 0L279.54 0 279.54-2 0-2 0 0Z"/><path id="path17_stroke" d="M0 0L106.89 0 106.89-2 0-2 0 0Z"/><path id="path18_stroke" d="M0 0L248.71 0 248.71-2 0-2 0 0Z"/><path id="path19_stroke" d="M0 0L253.97 0 253.97-2 0-2 0 0Z"/><path id="path20_stroke" d="M0 0L301.87 0 301.87-2 0-2 0 0Z"/><path id="path21_fill" d="M97 42.38L97 433.95C97 434.75 96.52 435.48 95.79 435.79L48.5 456 1.21 435.79C0.48 435.48 0 434.75 0 433.95L0 42.38C0 41.79 0.26 41.24 0.7 40.86L48.5 0 96.3 40.86C96.74 41.24 97 41.79 97 42.38Z"/><path id="path22_stroke" d="M96 435.27C96 435.83 96.45 436.27 97 436.27 97.55 436.27 98 435.83 98 435.27L96 435.27ZM-1 435.27C-1 435.83-0.55 436.27 0 436.27 0.55 436.27 1 435.83 1 435.27L-1 435.27ZM48.5 0L49.15-0.76C48.78-1.08 48.22-1.08 47.85-0.76L48.5 0ZM47.5 456C47.5 456.55 47.95 457 48.5 457 49.05 457 49.5 456.55 49.5 456L47.5 456ZM96.3 40.86L95.65 41.62 96.3 40.86ZM0.7 40.86L0.05 40.1 0.7 40.86ZM96 42.38L96 435.27 98 435.27 98 42.38 96 42.38ZM1 435.27L1 42.38 -1 42.38 -1 435.27 1 435.27ZM1.35 41.62L49.15 0.76 47.85-0.76 0.05 40.1 1.35 41.62ZM47.85 0.76L95.65 41.62 96.95 40.1 49.15-0.76 47.85 0.76ZM47.5 0L47.5 456 49.5 456 49.5 0 47.5 0ZM98 42.38C98 41.5 97.62 40.67 96.95 40.1L95.65 41.62C95.87 41.81 96 42.08 96 42.38L98 42.38ZM1 42.38C1 42.08 1.13 41.81 1.35 41.62L0.05 40.1C-0.62 40.67-1 41.5-1 42.38L1 42.38Z"/><path id="path23_fill" d="M51 22.92L51 229.69C51 230.48 50.53 231.21 49.79 231.52L25.5 242 1.21 231.52C0.47 231.21 0 230.48 0 229.69L0 22.92C0 22.33 0.25 21.78 0.69 21.4L25.5 0 50.31 21.4C50.75 21.78 51 22.33 51 22.92Z"/><path id="path24_stroke" d="M50 231C50 231.55 50.45 232 51 232 51.55 232 52 231.55 52 231L50 231ZM-1 231C-1 231.55-0.55 232 0 232 0.55 232 1 231.55 1 231L-1 231ZM25.5 0L26.15-0.76C25.78-1.08 25.22-1.08 24.85-0.76L25.5 0ZM24.5 242C24.5 242.55 24.95 243 25.5 243 26.05 243 26.5 242.55 26.5 242L24.5 242ZM50.31 21.4L49.65 22.16 50.31 21.4ZM0.69 21.4L0.04 20.64 0.69 21.4ZM50 22.92L50 231 52 231 52 22.92 50 22.92ZM1 231L1 22.92 -1 22.92 -1 231 1 231ZM1.35 22.16L26.15 0.76 24.85-0.76 0.04 20.64 1.35 22.16ZM24.85 0.76L49.65 22.16 50.96 20.64 26.15-0.76 24.85 0.76ZM24.5 0L24.5 242 26.5 242 26.5 0 24.5 0ZM52 22.92C52 22.04 51.62 21.21 50.96 20.64L49.65 22.16C49.87 22.35 50 22.63 50 22.92L52 22.92ZM1 22.92C1 22.63 1.13 22.35 1.35 22.16L0.04 20.64C-0.62 21.21-1 22.04-1 22.92L1 22.92Z"/></defs></svg>