<svg xmlns="http://www.w3.org/2000/svg" xmlns:xlink="http://www.w3.org/1999/xlink" width="137" height="91" viewBox="0 0 137 91" version="1.1"><title>Icon-Dolphin</title><desc>Created using Figma</desc><g id="Canvas" transform="translate(-8330 -2492)"><g id="Icon-Dolphin"><g id="Group"><g id="Union"><use xlink:href="#path0_fill" transform="translate(8359 2492)" fill="url(#paint0_linear)"/></g><g id="Ellipse 3"><use xlink:href="#path1_fill" transform="translate(8367.34 2532)" fill="#F0F0F0"/></g></g><g id="Vector"><use xlink:href="#path2_stroke" transform="translate(8331 2571)" fill="#F0F0F0"/></g></g></g><defs><linearGradient id="paint0_linear" x1="0" y1="0" x2="1" y2="0" gradientUnits="userSpaceOnUse" gradientTransform="matrix(37.2995 50.4652 -37.69 80.7088 35.1037 -40.3546)"><stop offset="0" stop-color="#0072FF"/><stop offset="1" stop-color="#00C3FF"/></linearGradient><path id="path0_fill" fill-rule="evenodd" d="M22.66 5.93C20.61 8.79 18.3 13.22 17.33 19.44 17.31 19.59 17.25 19.74 17.15 19.87 17.07 19.99 16.95 20.09 16.81 20.17 5.03 26.38-0.27 40.06 6.19 50.49 6.44 50.89 6.38 51.4 6.05 51.73L2.88 54.9C1.71 56.07 1.71 57.97 2.88 59.14 4.05 60.31 5.95 60.31 7.12 59.14L9.95 56.31C14.42 51.3 18.88 47.34 23.27 44.26 23.71 43.96 24.31 44.05 24.64 44.48 27.43 48.14 31.13 49.53 34.69 49.9 32.46 47.01 31.07 43.47 31.64 39.84 31.69 39.51 31.91 39.23 32.21 39.09 42.85 34.21 52.64 34.13 60.5 35.97 57.48 30.98 53.73 27.01 49.77 23.99 45.79 20.95 41.6 18.89 37.78 17.75 33.94 16.6 30.54 16.39 28.07 16.97 27.8 17.04 27.51 16.98 27.28 16.82 27.04 16.66 26.89 16.41 26.85 16.13L25.1 3.01C24.43 3.68 23.57 4.65 22.66 5.93ZM25.84 1L25.25 0.19C25.41 0.08 25.6 0.01 25.79 0 25.85 0 25.91 0 25.96 0.01 26.05 0.02 26.15 0.04 26.24 0.08 26.56 0.22 26.79 0.52 26.84 0.87L28.7 14.82C31.44 14.42 34.79 14.77 38.36 15.83 42.42 17.05 46.81 19.22 50.98 22.4 55.59 25.91 59.93 30.66 63.24 36.71 71.04 39.1 76.62 43.27 78.64 45.89 78.97 46.33 78.89 46.96 78.45 47.29L68.45 54.99C68.33 55.08 68.18 55.15 68.03 55.17 67.84 55.21 67.65 55.19 67.46 55.12 67.34 55.07 67.23 54.99 67.14 54.9 67.08 54.84 67.02 54.77 66.98 54.69 66.91 54.58 66.87 54.46 66.85 54.33 66.02 48.24 64.24 42.94 61.87 38.39 54.22 36.22 44.38 35.86 33.55 40.68 33.23 44.08 34.97 47.56 37.71 50.32 37.99 50.6 38.08 51.03 37.92 51.41 37.77 51.78 37.4 52.02 37 52.02 32.7 52.02 27.53 50.97 23.66 46.44 19.65 49.35 15.55 53.04 11.42 57.67L11.38 57.71 8.54 60.56C6.58 62.51 3.42 62.51 1.46 60.56 -0.49 58.6-0.49 55.44 1.46 53.49L4.09 50.86C-2.42 39.43 3.46 25.22 15.44 18.64 16.5 12.33 18.88 7.77 21.03 4.77 22.13 3.23 23.17 2.09 23.94 1.34 24.33 0.97 24.65 0.69 24.87 0.5 24.99 0.4 25.08 0.33 25.14 0.28L25.22 0.22 25.24 0.2 25.25 0.2C25.25 0.19 25.25 0.19 25.84 1ZM64.52 39.24C66.35 43.13 67.76 47.5 68.58 52.37L76.39 46.35C74.43 44.29 70.27 41.31 64.52 39.24ZM79.99 55.17L80 55.09C80 55.06 80 55.03 80 55 80 54.53 79.73 54.12 79.39 53.6L79.19 53.31C79.13 53.21 79.07 53.11 79 53 78.89 53.19 78.78 53.36 78.67 53.52L78.64 53.57 78.62 53.6C78.27 54.12 78 54.53 78 55 78 55.06 78.01 55.12 78.01 55.17 78.08 55.61 78.41 56 79 56 79.59 56 79.92 55.61 79.99 55.17ZM84.9 51.86C84.71 51.15 84.22 50.59 83.57 50 83.4 49.84 83.22 49.68 83.03 49.51L82.99 49.48C82.66 49.19 82.3 48.87 81.93 48.52 81.8 48.99 81.65 49.42 81.52 49.82L81.5 49.88C81.41 50.13 81.33 50.38 81.26 50.62 80.99 51.46 80.84 52.18 81.04 52.9 81.29 53.86 82.2 54.66 83.49 54.31 84.77 53.97 85.16 52.83 84.9 51.86Z"/><path id="path1_fill" d="M3 1.5C3 2.33 2.33 3 1.5 3 0.67 3 0 2.33 0 1.5 0 0.67 0.67 0 1.5 0 2.33 0 3 0.67 3 1.5Z"/><path id="path2_stroke" d="M101.04 0.06L100.4-0.71 100.39-0.7 101.04 0.06ZM101.04 0.06L101.68 0.83 101.69 0.83 101.04 0.06ZM101.46 0.06L102.11-0.7 102.11-0.7 101.46 0.06ZM135 12C135.55 12 136 11.55 136 11 136 10.45 135.55 10 135 10L135 12ZM0 10C-0.55 10-1 10.45-1 11 -1 11.55-0.55 12 0 12L0 10ZM33.54 0.06L34.19 0.82 34.2 0.82 33.54 0.06ZM33.96 0.06L33.3 0.82 33.31 0.82 33.96 0.06ZM67.5 11L67.5 10 67.5 10 67.5 11ZM101.68 0.83L101.68 0.83 100.4-0.71 100.4-0.71 101.68 0.83ZM101.69 0.83C101.69 0.83 101.66 0.85 101.62 0.88 101.58 0.9 101.54 0.93 101.49 0.95 101.39 0.99 101.3 1 101.25 1L101.25-1C101.07-1 100.89-0.97 100.72-0.9 100.55-0.83 100.43-0.73 100.4-0.7L101.69 0.83ZM101.25 1C101.2 1 101.11 0.99 101.01 0.95 100.96 0.93 100.92 0.9 100.88 0.88 100.84 0.85 100.81 0.82 100.81 0.83L102.11-0.7C102.07-0.73 101.96-0.83 101.78-0.9 101.62-0.97 101.44-1 101.25-1L101.25 1ZM100.81 0.82C109.19 7.96 121.67 12 135 12L135 10C122.03 10 110.05 6.07 102.11-0.7L100.81 0.82ZM0 12C13.33 12 25.81 7.96 34.19 0.82L32.89-0.7C24.95 6.07 12.97 10 0 10L0 12ZM34.2 0.82C34.2 0.82 34.19 0.83 34.17 0.84 34.16 0.85 34.14 0.86 34.12 0.88 34.08 0.9 34.04 0.93 33.99 0.95 33.89 0.99 33.8 1 33.75 1L33.75-1C33.57-1 33.39-0.97 33.22-0.9 33.04-0.83 32.93-0.73 32.89-0.69L34.2 0.82ZM33.75 1C33.7 1 33.61 0.99 33.51 0.95 33.46 0.93 33.42 0.9 33.38 0.87 33.36 0.86 33.34 0.85 33.32 0.84 33.31 0.83 33.3 0.82 33.3 0.82L34.61-0.69C34.57-0.73 34.46-0.82 34.28-0.9 34.11-0.97 33.93-1 33.75-1L33.75 1ZM33.31 0.82C41.69 7.96 54.16 12 67.5 12L67.5 10C54.53 10 42.55 6.07 34.61-0.7L33.31 0.82ZM67.5 12C80.83 12 93.31 7.96 101.69 0.83L100.39-0.7C92.45 6.07 80.47 10 67.5 10L67.5 12Z"/></defs></svg>