<svg xmlns="http://www.w3.org/2000/svg" xmlns:xlink="http://www.w3.org/1999/xlink" width="160" height="108" viewBox="0 0 160 108" version="1.1"><title>Icon-Privacy</title><desc>Created using Figma</desc><g id="Canvas" transform="translate(-6686 -1648)"><g id="Icon-Privacy"><g id="Eye"><g id="Union"><mask id="mask0_outline_ins"><use xlink:href="#path0_fill" fill="white" transform="translate(6686 1657)"/></mask><g mask="url(#mask0_outline_ins)"><use xlink:href="#path1_stroke_2x" transform="translate(6686 1657)" fill="url(#paint0_linear)"/></g></g><g id="Ellipse 3.1"><use xlink:href="#path2_stroke" transform="matrix(0.707107 0.707107 -0.707107 0.707107 6766 1683.2)" fill="#F0F0F0"/></g><g id="Line"><use xlink:href="#path3_stroke" transform="matrix(0.707107 -0.707107 0.707107 0.707107 6714 1756.03)" fill="#F0F0F0"/></g></g></g></g><defs><linearGradient id="paint0_linear" x1="0" y1="0" x2="1" y2="0" gradientUnits="userSpaceOnUse" gradientTransform="matrix(160 92 -160 278.261 80 -139.13)"><stop offset="0" stop-color="#0072FF"/><stop offset="1" stop-color="#00C3FF"/></linearGradient><path id="path0_fill" fill-rule="evenodd" d="M80 92C25.77 92 0 46 0 46 0 46 24.66 0 80 0 135.34 0 160 46 160 46 160 46 134.23 92 80 92ZM2.63 46.48C2.52 46.3 2.41 46.13 2.32 45.98 2.47 45.73 2.65 45.42 2.87 45.08 3.62 43.86 4.77 42.11 6.33 40 9.44 35.78 14.16 30.14 20.57 24.5 33.38 13.24 52.93 2 80 2 107.07 2 126.62 13.24 139.43 24.5 145.84 30.14 150.56 35.78 153.67 40 155.23 42.11 156.38 43.86 157.13 45.08 157.35 45.42 157.53 45.73 157.68 45.98 157.52 46.24 157.33 46.54 157.1 46.89 156.32 48.11 155.13 49.87 153.53 51.98 150.33 56.21 145.51 61.85 139.02 67.49 126.06 78.77 106.5 90 80 90 53.5 90 33.94 78.77 20.98 67.49 14.49 61.85 9.67 56.21 6.47 51.98 4.87 49.87 3.68 48.11 2.89 46.89 2.8 46.75 2.71 46.61 2.63 46.48ZM112 46C112 63.67 97.67 78 80 78 62.33 78 48 63.67 48 46 48 28.33 62.33 14 80 14 97.67 14 112 28.33 112 46ZM114 46C114 64.78 98.78 80 80 80 61.22 80 46 64.78 46 46 46 27.22 61.22 12 80 12 98.78 12 114 27.22 114 46Z"/><path id="path1_stroke_2x" d="M0 46L-0.88 45.53 -1.14 46.01 -0.87 46.49 0 46ZM160 46L160.87 46.49 161.14 46.01 160.88 45.53 160 46ZM2.32 45.98L1.46 45.47 1.15 45.99 1.47 46.5 2.32 45.98ZM2.63 46.48L3.48 45.95 3.48 45.95 2.63 46.48ZM2.87 45.08L3.72 45.61 3.72 45.61 2.87 45.08ZM6.33 40L7.13 40.59 7.13 40.59 6.33 40ZM20.57 24.5L21.23 25.25 21.23 25.25 20.57 24.5ZM139.43 24.5L138.77 25.25 138.77 25.25 139.43 24.5ZM153.67 40L152.87 40.59 152.87 40.59 153.67 40ZM157.13 45.08L156.29 45.61 156.29 45.61 157.13 45.08ZM157.68 45.98L158.53 46.5 158.85 45.99 158.54 45.47 157.68 45.98ZM157.1 46.89L156.26 46.35 156.26 46.35 157.1 46.89ZM153.53 51.98L152.73 51.38 152.73 51.38 153.53 51.98ZM139.02 67.49L138.37 66.74 138.37 66.74 139.02 67.49ZM20.98 67.49L21.63 66.74 21.63 66.74 20.98 67.49ZM6.47 51.98L7.27 51.38 7.27 51.38 6.47 51.98ZM2.89 46.89L3.74 46.35 3.73 46.35 2.89 46.89ZM0 46C-0.87 46.49-0.87 46.49-0.87 46.49 -0.87 46.49-0.87 46.49-0.87 46.49 -0.87 46.49-0.87 46.5-0.87 46.5 -0.86 46.51-0.86 46.52-0.85 46.53 -0.84 46.55-0.82 46.59-0.79 46.63 -0.74 46.72-0.66 46.86-0.55 47.03 -0.35 47.38-0.04 47.88 0.37 48.52 1.2 49.8 2.43 51.61 4.08 53.79 7.37 58.15 12.34 63.95 19.01 69.75 32.36 81.37 52.58 93 80 93L80 91C53.19 91 33.42 79.63 20.32 68.25 13.77 62.55 8.9 56.85 5.67 52.58 4.06 50.45 2.85 48.67 2.05 47.43 1.65 46.82 1.36 46.33 1.16 46 1.06 45.84 0.99 45.71 0.94 45.63 0.92 45.59 0.9 45.56 0.89 45.54 0.88 45.53 0.88 45.52 0.88 45.52 0.87 45.51 0.87 45.51 0.87 45.51 0.87 45.51 0.87 45.51 0.87 45.51 0.87 45.51 0.87 45.51 0 46ZM80-1C52.03-1 31.8 10.63 18.59 22.25 11.98 28.06 7.12 33.86 3.91 38.22 2.31 40.4 1.11 42.22 0.32 43.5 -0.08 44.13-0.38 44.64-0.58 44.98 -0.68 45.16-0.75 45.29-0.8 45.38 -0.83 45.43-0.85 45.46-0.86 45.49 -0.87 45.5-0.87 45.51-0.88 45.52 -0.88 45.52-0.88 45.52-0.88 45.52 -0.88 45.52-0.88 45.53-0.88 45.53 -0.88 45.53-0.88 45.53 0 46 0.88 46.47 0.88 46.47 0.88 46.47 0.88 46.47 0.88 46.47 0.88 46.47 0.88 46.47 0.88 46.47 0.88 46.47 0.89 46.46 0.89 46.46 0.9 46.45 0.91 46.43 0.92 46.4 0.95 46.35 0.99 46.27 1.06 46.15 1.16 45.98 1.35 45.66 1.63 45.17 2.02 44.55 2.79 43.31 3.95 41.54 5.52 39.41 8.67 35.14 13.43 29.44 19.91 23.75 32.86 12.37 52.63 1 80 1L80-1ZM160 46C160.88 45.53 160.88 45.53 160.88 45.53 160.88 45.53 160.88 45.52 160.88 45.52 160.88 45.52 160.88 45.52 160.88 45.52 160.87 45.51 160.87 45.5 160.86 45.49 160.85 45.46 160.83 45.43 160.8 45.38 160.75 45.29 160.68 45.16 160.58 44.98 160.38 44.64 160.08 44.13 159.68 43.5 158.89 42.22 157.69 40.4 156.09 38.22 152.88 33.86 148.02 28.06 141.41 22.25 128.2 10.63 107.97-1 80-1L80 1C107.37 1 127.14 12.37 140.09 23.75 146.57 29.44 151.33 35.14 154.48 39.41 156.05 41.54 157.21 43.31 157.98 44.55 158.37 45.17 158.65 45.66 158.84 45.98 158.94 46.15 159.01 46.27 159.05 46.35 159.08 46.4 159.09 46.43 159.1 46.45 159.11 46.46 159.11 46.46 159.12 46.47 159.12 46.47 159.12 46.47 159.12 46.47 159.12 46.47 159.12 46.47 159.12 46.47 159.12 46.47 159.12 46.47 160 46ZM80 93C107.42 93 127.64 81.37 140.99 69.75 147.67 63.95 152.63 58.15 155.92 53.79 157.57 51.61 158.8 49.8 159.63 48.52 160.04 47.88 160.35 47.38 160.56 47.03 160.66 46.86 160.74 46.72 160.79 46.63 160.82 46.59 160.84 46.55 160.85 46.53 160.86 46.52 160.86 46.51 160.87 46.5 160.87 46.5 160.87 46.49 160.87 46.49 160.87 46.49 160.87 46.49 160.87 46.49 160.87 46.49 160.87 46.49 160 46 159.13 45.51 159.13 45.51 159.13 45.51 159.13 45.51 159.13 45.51 159.13 45.51 159.13 45.51 159.13 45.51 159.13 45.52 159.12 45.52 159.12 45.53 159.11 45.54 159.1 45.56 159.08 45.59 159.06 45.63 159.01 45.71 158.94 45.84 158.84 46 158.64 46.33 158.35 46.82 157.95 47.43 157.15 48.67 155.94 50.45 154.33 52.58 151.1 56.85 146.23 62.55 139.68 68.25 126.59 79.63 106.81 91 80 91L80 93ZM1.47 46.5C1.56 46.66 1.67 46.83 1.79 47.02L3.48 45.95C3.36 45.77 3.26 45.6 3.17 45.46L1.47 46.5ZM2.02 44.55C1.8 44.9 1.61 45.21 1.46 45.47L3.18 46.49C3.33 46.24 3.5 45.95 3.72 45.61L2.02 44.55ZM5.52 39.41C3.95 41.54 2.79 43.31 2.02 44.55L3.72 45.61C4.46 44.41 5.6 42.68 7.13 40.59L5.52 39.41ZM19.91 23.75C13.43 29.44 8.67 35.14 5.52 39.41L7.13 40.59C10.21 36.41 14.88 30.83 21.23 25.25L19.91 23.75ZM80 1C52.63 1 32.86 12.37 19.91 23.75L21.23 25.25C33.91 14.11 53.23 3 80 3L80 1ZM140.09 23.75C127.14 12.37 107.37 1 80 1L80 3C106.77 3 126.09 14.11 138.77 25.25L140.09 23.75ZM154.48 39.41C151.33 35.14 146.57 29.44 140.09 23.75L138.77 25.25C145.12 30.83 149.79 36.41 152.87 40.59L154.48 39.41ZM157.98 44.55C157.21 43.31 156.05 41.54 154.48 39.41L152.87 40.59C154.4 42.68 155.54 44.41 156.29 45.61L157.98 44.55ZM158.54 45.47C158.39 45.21 158.2 44.9 157.98 44.55L156.29 45.61C156.5 45.95 156.68 46.24 156.82 46.49L158.54 45.47ZM157.95 47.44C158.18 47.08 158.37 46.77 158.53 46.5L156.83 45.46C156.68 45.71 156.49 46.01 156.26 46.35L157.95 47.44ZM154.33 52.58C155.94 50.45 157.15 48.67 157.95 47.43L156.26 46.35C155.49 47.55 154.32 49.29 152.73 51.38L154.33 52.58ZM139.68 68.25C146.23 62.55 151.1 56.85 154.33 52.58L152.73 51.38C149.57 55.56 144.79 61.15 138.37 66.74L139.68 68.25ZM80 91C106.81 91 126.58 79.63 139.68 68.25L138.37 66.74C125.53 77.9 106.2 89 80 89L80 91ZM20.32 68.25C33.42 79.63 53.19 91 80 91L80 89C53.8 89 34.47 77.9 21.63 66.74L20.32 68.25ZM5.67 52.58C8.9 56.85 13.77 62.55 20.32 68.25L21.63 66.74C15.21 61.15 10.43 55.56 7.27 51.38L5.67 52.58ZM2.05 47.43C2.85 48.67 4.06 50.45 5.67 52.58L7.27 51.38C5.68 49.29 4.51 47.55 3.74 46.35L2.05 47.43ZM1.79 47.02C1.87 47.15 1.96 47.29 2.05 47.44L3.73 46.35C3.64 46.21 3.56 46.07 3.48 45.95L1.79 47.02ZM80 79C98.23 79 113 64.23 113 46L111 46C111 63.12 97.12 77 80 77L80 79ZM47 46C47 64.23 61.77 79 80 79L80 77C62.88 77 49 63.12 49 46L47 46ZM80 13C61.77 13 47 27.77 47 46L49 46C49 28.88 62.88 15 80 15L80 13ZM113 46C113 27.77 98.23 13 80 13L80 15C97.12 15 111 28.88 111 46L113 46ZM80 81C99.33 81 115 65.33 115 46L113 46C113 64.23 98.23 79 80 79L80 81ZM45 46C45 65.33 60.67 81 80 81L80 79C61.77 79 47 64.23 47 46L45 46ZM80 11C60.67 11 45 26.67 45 46L47 46C47 27.77 61.77 13 80 13L80 11ZM115 46C115 26.67 99.33 11 80 11L80 13C98.23 13 113 27.77 113 46L115 46Z"/><path id="path2_stroke" d="M14 27C6.82 27 1 21.18 1 14L-1 14C-1 22.28 5.72 29 14 29L14 27ZM1 14C1 6.82 6.82 1 14 1L14-1C5.72-1-1 5.72-1 14L1 14Z"/><path id="path3_stroke" d="M1-2C0.45-2 0-1.55 0-1 0-0.45 0.45 0 1 0L1-2ZM149 0C149.55 0 150-0.45 150-1 150-1.55 149.55-2 149-2L149 0ZM1 0L149 0 149-2 1-2 1 0Z"/></defs></svg>