<svg xmlns="http://www.w3.org/2000/svg" xmlns:xlink="http://www.w3.org/1999/xlink" width="137" height="95" viewBox="0 0 137 95" version="1.1"><title>Group</title><desc>Created using Figma</desc><g id="Canvas" transform="translate(-7089 -1656)"><g id="Group"><g id="Line"><use xlink:href="#path0_stroke" transform="matrix(-1 1.22465e-16 -1.22465e-16 -1 7164 1677)" fill="#F0F0F0"/></g><g id="Line"><use xlink:href="#path1_stroke" transform="matrix(-1 1.22465e-16 -1.22465e-16 -1 7156 1697)" fill="#F0F0F0"/></g><g id="Line"><use xlink:href="#path2_stroke" transform="matrix(-1 1.22465e-16 -1.22465e-16 -1 7172 1717)" fill="#F0F0F0"/></g><g id="Vector"><use xlink:href="#path3_stroke" transform="translate(7171 1657)" fill="url(#paint3_linear)"/></g></g></g><defs><linearGradient id="paint3_linear" x1="0" y1="0" x2="1" y2="0" gradientUnits="userSpaceOnUse" gradientTransform="matrix(3.24531e-15 93 -53 5.69461e-15 53 2.27516e-22)"><stop offset="0" stop-color="#0072FF"/><stop offset="1" stop-color="#00C3FF"/></linearGradient><path id="path0_stroke" d="M1-2C0.45-2 0-1.55 0-1 0-0.45 0.45 0 1 0L1-2ZM39 0C39.55 0 40-0.45 40-1 40-1.55 39.55-2 39-2L39 0ZM1 0L39 0 39-2 1-2 1 0Z"/><path id="path1_stroke" d="M1-2C0.45-2 0-1.55 0-1 0-0.45 0.45 0 1 0L1-2ZM66 0C66.55 0 67-0.45 67-1 67-1.55 66.55-2 66-2L66 0ZM1 0L66 0 66-2 1-2 1 0Z"/><path id="path2_stroke" d="M1-2C0.45-2 0-1.55 0-1 0-0.45 0.45 0 1 0L1-2ZM69 0C69.55 0 70-0.45 70-1 70-1.55 69.55-2 69-2L69 0ZM1 0L69 0 69-2 1-2 1 0Z"/><path id="path3_stroke" d="M9.46 0L9.46-1C9-1 8.59-0.68 8.49-0.22L9.46 0ZM43.54 0L44.46 0.38C44.59 0.07 44.55-0.28 44.37-0.56 44.18-0.83 43.87-1 43.54-1L43.54 0ZM32.5 27L31.57 26.62C31.45 26.93 31.48 27.28 31.67 27.56 31.86 27.83 32.17 28 32.5 28L32.5 27ZM53.32 27L54.1 27.63C54.34 27.33 54.39 26.92 54.22 26.57 54.06 26.22 53.71 26 53.32 26L53.32 27ZM0 93L-0.94 92.66C-1.11 93.12-0.92 93.63-0.49 93.87 -0.07 94.11 0.47 94.01 0.78 93.63L0 93ZM18.93 41L19.87 41.34C19.98 41.04 19.93 40.69 19.75 40.43 19.56 40.16 19.25 40 18.93 40L18.93 41ZM0 41L-0.97 40.78C-1.04 41.07-0.97 41.38-0.78 41.62 -0.59 41.86-0.3 42 0 42L0 41ZM9.46 1L43.54 1 43.54-1 9.46-1 9.46 1ZM42.61-0.38L31.57 26.62 33.43 27.38 44.46 0.38 42.61-0.38ZM32.5 28L53.32 28 53.32 26 32.5 26 32.5 28ZM52.54 26.37L-0.78 92.37 0.78 93.63 54.1 27.63 52.54 26.37ZM0.94 93.34L19.87 41.34 17.99 40.66 -0.94 92.66 0.94 93.34ZM18.93 40L0 40 0 42 18.93 42 18.93 40ZM0.97 41.22L10.44 0.22 8.49-0.22 -0.97 40.78 0.97 41.22Z"/></defs></svg>