<svg xmlns="http://www.w3.org/2000/svg" xmlns:xlink="http://www.w3.org/1999/xlink" width="269" height="211" viewBox="0 0 269 211" version="1.1"><title>Group</title><desc>Created using Figma</desc><g id="Canvas" transform="translate(-8792 -250)"><g id="Group"><g id="Ellipse 2.19"><use xlink:href="#path0_fill" transform="translate(9048.37 250)" fill="#4A4D51"/><mask id="mask0_outline_ins"><use xlink:href="#path0_fill" fill="white" transform="translate(9048.37 250)"/></mask><g mask="url(#mask0_outline_ins)"><use xlink:href="#path1_stroke_2x" transform="translate(9048.37 250)" fill="url(#paint1_linear)"/></g></g><g id="Ellipse 2.22"><use xlink:href="#path0_fill" transform="translate(8900.37 316)" fill="#4A4D51"/><mask id="mask1_outline_ins"><use xlink:href="#path0_fill" fill="white" transform="translate(8900.37 316)"/></mask><g mask="url(#mask1_outline_ins)"><use xlink:href="#path1_stroke_2x" transform="translate(8900.37 316)" fill="url(#paint3_linear)"/></g></g><g id="Ellipse 2.23"><use xlink:href="#path0_fill" transform="translate(8940.37 286)" fill="#4A4D51"/><mask id="mask2_outline_ins"><use xlink:href="#path0_fill" fill="white" transform="translate(8940.37 286)"/></mask><g mask="url(#mask2_outline_ins)"><use xlink:href="#path1_stroke_2x" transform="translate(8940.37 286)" fill="url(#paint5_linear)"/></g></g><g id="Ellipse 2.18"><use xlink:href="#path0_fill" transform="translate(8980.37 346)" fill="#4A4D51"/><mask id="mask3_outline_ins"><use xlink:href="#path0_fill" fill="white" transform="translate(8980.37 346)"/></mask><g mask="url(#mask3_outline_ins)"><use xlink:href="#path1_stroke_2x" transform="translate(8980.37 346)" fill="url(#paint7_linear)"/></g></g><g id="Ellipse 2.16"><use xlink:href="#path0_fill" transform="translate(8792.37 432)" fill="#4A4D51"/><mask id="mask4_outline_ins"><use xlink:href="#path0_fill" fill="white" transform="translate(8792.37 432)"/></mask><g mask="url(#mask4_outline_ins)"><use xlink:href="#path1_stroke_2x" transform="translate(8792.37 432)" fill="url(#paint9_linear)"/></g></g><g id="Ellipse 2.20"><use xlink:href="#path0_fill" transform="translate(9048.37 399)" fill="#4A4D51"/><mask id="mask5_outline_ins"><use xlink:href="#path0_fill" fill="white" transform="translate(9048.37 399)"/></mask><g mask="url(#mask5_outline_ins)"><use xlink:href="#path1_stroke_2x" transform="translate(9048.37 399)" fill="url(#paint11_linear)"/></g></g><g id="Ellipse 2.21"><use xlink:href="#path0_fill" transform="translate(8998.37 449)" fill="#4A4D51"/><mask id="mask6_outline_ins"><use xlink:href="#path0_fill" fill="white" transform="translate(8998.37 449)"/></mask><g mask="url(#mask6_outline_ins)"><use xlink:href="#path1_stroke_2x" transform="translate(8998.37 449)" fill="url(#paint13_linear)"/></g></g><g id="Line"><use xlink:href="#path2_stroke" transform="matrix(-0.8 0.6 -0.6 -0.8 8946.37 292)" fill="#4A4D51"/></g><g id="Line"><use xlink:href="#path3_stroke" transform="matrix(0.707107 -0.707107 0.707107 0.707107 9004.37 455)" fill="#4A4D51"/></g><g id="Line"><use xlink:href="#path4_stroke" transform="matrix(-0.593199 -0.805056 0.805056 -0.593199 9004.37 455)" fill="#4A4D51"/></g><g id="Line"><use xlink:href="#path5_stroke" transform="matrix(0.582047 -0.813155 0.813155 0.582048 8986.37 352)" fill="#4A4D51"/></g><g id="Line"><use xlink:href="#path6_stroke" transform="matrix(0.788727 0.614743 -0.614743 0.788727 8986.37 352)" fill="#4A4D51"/></g><g id="Line"><use xlink:href="#path7_stroke" transform="matrix(-0.90937 0.415988 -0.415988 -0.90937 8986.37 352)" fill="#4A4D51"/></g></g></g><defs><linearGradient id="paint1_linear" x1="0" y1="0" x2="1" y2="0" gradientUnits="userSpaceOnUse" gradientTransform="matrix(7.34788e-16 12 -12 7.34788e-16 12 -7.34788e-16)"><stop offset="0" stop-color="#4A4D51"/></linearGradient><linearGradient id="paint3_linear" x1="0" y1="0" x2="1" y2="0" gradientUnits="userSpaceOnUse" gradientTransform="matrix(7.34788e-16 12 -12 7.34788e-16 12 -7.34788e-16)"><stop offset="0" stop-color="#4A4D51"/></linearGradient><linearGradient id="paint5_linear" x1="0" y1="0" x2="1" y2="0" gradientUnits="userSpaceOnUse" gradientTransform="matrix(7.34788e-16 12 -12 7.34788e-16 12 -7.34788e-16)"><stop offset="0" stop-color="#4A4D51"/></linearGradient><linearGradient id="paint7_linear" x1="0" y1="0" x2="1" y2="0" gradientUnits="userSpaceOnUse" gradientTransform="matrix(7.34788e-16 12 -12 7.34788e-16 12 -7.34788e-16)"><stop offset="0" stop-color="#4A4D51"/></linearGradient><linearGradient id="paint9_linear" x1="0" y1="0" x2="1" y2="0" gradientUnits="userSpaceOnUse" gradientTransform="matrix(7.34788e-16 12 -12 7.34788e-16 12 -7.34788e-16)"><stop offset="0" stop-color="#4A4D51"/></linearGradient><linearGradient id="paint11_linear" x1="0" y1="0" x2="1" y2="0" gradientUnits="userSpaceOnUse" gradientTransform="matrix(7.34788e-16 12 -12 7.34788e-16 12 -7.34788e-16)"><stop offset="0" stop-color="#4A4D51"/></linearGradient><linearGradient id="paint13_linear" x1="0" y1="0" x2="1" y2="0" gradientUnits="userSpaceOnUse" gradientTransform="matrix(7.34788e-16 12 -12 7.34788e-16 12 -7.34788e-16)"><stop offset="0" stop-color="#4A4D51"/></linearGradient><path id="path0_fill" d="M12 6C12 9.31 9.31 12 6 12 2.69 12 0 9.31 0 6 0 2.69 2.69 0 6 0 9.31 0 12 2.69 12 6Z"/><path id="path1_stroke_2x" d="M10 6C10 8.21 8.21 10 6 10L6 14C10.42 14 14 10.42 14 6L10 6ZM6 10C3.79 10 2 8.21 2 6L-2 6C-2 10.42 1.58 14 6 14L6 10ZM2 6C2 3.79 3.79 2 6 2L6-2C1.58-2-2 1.58-2 6L2 6ZM6 2C8.21 2 10 3.79 10 6L14 6C14 1.58 10.42-2 6-2L6 2Z"/><path id="path2_stroke" d="M0 0L50 0 50-2 0-2 0 0Z"/><path id="path3_stroke" d="M0 0L70.71 0 70.71-2 0-2 0 0Z"/><path id="path4_stroke" d="M0 0L165.21 0 165.21-2 0-2 0 0Z"/><path id="path5_stroke" d="M0 0L116.83 0 116.83-2 0-2 0 0Z"/><path id="path6_stroke" d="M0 0L86.21 0 86.21-2 0-2 0 0Z"/><path id="path7_stroke" d="M0 0L206.74 0 206.74-2 0-2 0 0Z"/></defs></svg>