<svg xmlns="http://www.w3.org/2000/svg" xmlns:xlink="http://www.w3.org/1999/xlink" width="88" height="112" viewBox="0 0 88 112" version="1.1"><title>Group 2</title><desc>Created using Figma</desc><g id="Canvas" transform="translate(-6332 -1648)"><g id="Group 2"><g id="Union"><use xlink:href="#path0_fill" transform="translate(6332 1648)" fill="url(#paint0_linear)"/></g><g id="Group"><g id="Union"><mask id="mask0_outline_out"><rect id="mask0_outline_inv" fill="white" x="-2" y="-2" width="23" height="35" transform="translate(6367 1712)"/><use xlink:href="#path1_fill" fill="black" transform="translate(6367 1712)"/></mask><g mask="url(#mask0_outline_out)"><use xlink:href="#path2_stroke_2x" transform="translate(6367 1712)" fill="#F0F0F0"/></g></g><g id="Ellipse"><use xlink:href="#path3_fill" transform="translate(6374 1719)" fill="#F0F0F0"/></g></g></g></g><defs><linearGradient id="paint0_linear" x1="0" y1="0" x2="1" y2="0" gradientUnits="userSpaceOnUse" gradientTransform="matrix(99.4531 120.234 -99.4531 235.659 41.7734 -117.752)"><stop offset="0" stop-color="#0072FF"/><stop offset="1" stop-color="#00C3FF"/></linearGradient><path id="path0_fill" fill-rule="evenodd" d="M73 47L73 31C73 14.9838 60.0161 2 44 2 27.9839 2 15 14.9838 15 31L15 47 27 47 27 31C27 21.6112 34.6113 14 44 14 53.3887 14 61 21.6112 61 31L61 47 73 47ZM61 49L59 49 29 49 27 49 15 49 13 49 2 49 2 110 86 110 86 49 75 49 73 49 61 49ZM59 47L59 31C59 22.7157 52.2842 16 44 16 35.7158 16 29 22.7157 29 31L29 47 59 47ZM13 31L13 47 2 47C0.895508 47 0 47.8954 0 49L0 110C0 111.105 0.895508 112 2 112L86 112C87.1045 112 88 111.105 88 110L88 49C88 47.8954 87.1045 47 86 47L75 47 75 31C75 13.8792 61.1206 0 44 0 26.8794 0 13 13.8792 13 31Z"/><path id="path1_fill" fill-rule="evenodd" d="M13.1538 18.4551C16.5869 17.009 19 13.5868 19 9.59521 19 4.2959 14.7466 0 9.5 0 4.25342 0 0 4.2959 0 9.59521 0 13.5868 2.41309 17.009 5.84619 18.4551L5.84619 27.3462C5.84619 29.3641 7.48193 31 9.5 31 11.5181 31 13.1538 29.3641 13.1538 27.3462L13.1538 18.4551Z"/><path id="path2_stroke_2x" d="M13.1538 18.4551L12.3775 16.6119 11.1538 17.1273 11.1538 18.4551 13.1538 18.4551ZM5.84619 18.4551L7.84619 18.4551 7.84619 17.1273 6.62255 16.6119 5.84619 18.4551ZM17 9.59521C17 12.7633 15.0866 15.4708 12.3775 16.6119L13.9302 20.2982C18.0872 18.5473 21 14.4103 21 9.59521L17 9.59521ZM9.5 2C13.6233 2 17 5.38164 17 9.59521L21 9.59521C21 3.21016 15.8699-2 9.5-2L9.5 2ZM2 9.59521C2 5.38164 5.37672 2 9.5 2L9.5-2C3.13011-2-2 3.21016-2 9.59521L2 9.59521ZM6.62255 16.6119C3.91336 15.4708 2 12.7633 2 9.59521L-2 9.59521C-2 14.4103 0.912814 18.5473 5.06984 20.2982L6.62255 16.6119ZM7.84619 27.3462L7.84619 18.4551 3.84619 18.4551 3.84619 27.3462 7.84619 27.3462ZM9.5 29C8.58655 29 7.84619 28.2596 7.84619 27.3462L3.84619 27.3462C3.84619 30.4687 6.37732 33 9.5 33L9.5 29ZM11.1538 27.3462C11.1538 28.2596 10.4135 29 9.5 29L9.5 33C12.6227 33 15.1538 30.4687 15.1538 27.3462L11.1538 27.3462ZM11.1538 18.4551L11.1538 27.3462 15.1538 27.3462 15.1538 18.4551 11.1538 18.4551Z"/><path id="path3_fill" d="M5 2.5C5 3.88071 3.88071 5 2.5 5 1.11929 5 0 3.88071 0 2.5 0 1.11929 1.11929 0 2.5 0 3.88071 0 5 1.11929 5 2.5Z"/></defs></svg>