<svg xmlns="http://www.w3.org/2000/svg" xmlns:xlink="http://www.w3.org/1999/xlink" width="137" height="75" viewBox="0 0 137 75" version="1.1"><title>Icon-Dolphin</title><desc>Created using Figma</desc><g id="Canvas" transform="translate(-8717 -2504)"><g id="Icon-Dolphin"><g id="Group"><g id="Line"><use xlink:href="#path0_stroke" transform="matrix(-0.658505 -0.752577 0.752577 -0.658505 8743 2530)" fill="#F0F0F0"/></g><g id="Line"><use xlink:href="#path1_stroke" transform="matrix(0.89899 -0.437969 0.437969 0.89899 8752 2534)" fill="#F0F0F0"/></g><g id="Line"><use xlink:href="#path2_stroke" transform="matrix(0.940887 0.338719 -0.338719 0.940887 8751 2538)" fill="#F0F0F0"/></g><g id="Line"><use xlink:href="#path3_stroke" transform="matrix(0.347314 -0.937749 0.937749 0.347314 8784 2544)" fill="#F0F0F0"/></g><g id="Line"><use xlink:href="#path4_stroke" transform="matrix(-0.928477 0.371391 -0.371391 -0.928477 8775 2551)" fill="#F0F0F0"/></g><g id="Line"><use xlink:href="#path5_stroke" transform="matrix(0.200396 0.979715 -0.979715 0.200396 8724 2517)" fill="#F0F0F0"/></g><g id="Line"><use xlink:href="#path6_stroke" transform="matrix(-0.92502 0.379919 -0.379919 -0.92502 8842 2523)" fill="#F0F0F0"/></g><g id="Line"><use xlink:href="#path7_stroke" transform="matrix(-0.650791 -0.759257 0.759257 -0.650791 8798 2567)" fill="#F0F0F0"/></g><g id="Line"><use xlink:href="#path8_stroke" transform="matrix(-0.365652 0.930752 -0.930752 -0.365652 8844 2526)" fill="#F0F0F0"/></g><g id="Line"><use xlink:href="#path9_stroke" transform="matrix(0.612572 0.790415 -0.790415 0.612572 8798 2516)" fill="#F0F0F0"/></g><g id="Union"><use xlink:href="#path10_fill" transform="translate(8717 2504)" fill="url(#paint10_linear)"/></g></g></g></g><defs><linearGradient id="paint10_linear" x1="0" y1="0" x2="1" y2="0" gradientUnits="userSpaceOnUse" gradientTransform="matrix(137 75 -3453.45 6308.31 1726.73 -3154.16)"><stop offset="0" stop-color="#0072FF"/><stop offset="1" stop-color="#00C3FF"/></linearGradient><path id="path0_stroke" d="M1-2C0.45-2 0-1.55 0-1 0-0.45 0.45 0 1 0L1-2ZM20.26 0C20.81 0 21.26-0.45 21.26-1 21.26-1.55 20.81-2 20.26-2L20.26 0ZM1 0L20.26 0 20.26-2 1-2 1 0Z"/><path id="path1_stroke" d="M1-2C0.45-2 0-1.55 0-1 0-0.45 0.45 0 1 0L1-2ZM42.38 0C42.93 0 43.38-0.45 43.38-1 43.38-1.55 42.93-2 42.38-2L42.38 0ZM1 0L42.38 0 42.38-2 1-2 1 0Z"/><path id="path2_stroke" d="M1-2C0.45-2 0-1.55 0-1 0-0.45 0.45 0 1 0L1-2ZM25.57 0C26.12 0 26.57-0.45 26.57-1 26.57-1.55 26.12-2 25.57-2L25.57 0ZM1 0L25.57 0 25.57-2 1-2 1 0Z"/><path id="path3_stroke" d="M1-2C0.45-2 0-1.55 0-1 0-0.45 0.45 0 1 0L1-2ZM27.79 0C28.34 0 28.79-0.45 28.79-1 28.79-1.55 28.34-2 27.79-2L27.79 0ZM1 0L27.79 0 27.79-2 1-2 1 0Z"/><path id="path4_stroke" d="M1-2C0.45-2 0-1.55 0-1 0-0.45 0.45 0 1 0L1-2ZM36.7 0C37.25 0 37.7-0.45 37.7-1 37.7-1.55 37.25-2 36.7-2L36.7 0ZM1 0L36.7 0 36.7-2 1-2 1 0Z"/><path id="path5_stroke" d="M1-2C0.45-2 0-1.55 0-1 0-0.45 0.45 0 1 0L1-2ZM43.91 0C44.46 0 44.91-0.45 44.91-1 44.91-1.55 44.46-2 43.91-2L43.91 0ZM1 0L43.91 0 43.91-2 1-2 1 0Z"/><path id="path6_stroke" d="M1-2C0.45-2 0-1.55 0-1 0-0.45 0.45 0 1 0L1-2ZM59.54 0C60.09 0 60.54-0.45 60.54-1 60.54-1.55 60.09-2 59.54-2L59.54 0ZM1 0L59.54 0 59.54-2 1-2 1 0Z"/><path id="path7_stroke" d="M1-2C0.45-2 0-1.55 0-1 0-0.45 0.45 0 1 0L1-2ZM17.44 0C17.99 0 18.44-0.45 18.44-1 18.44-1.55 17.99-2 17.44-2L17.44 0ZM1 0L17.44 0 17.44-2 1-2 1 0Z"/><path id="path8_stroke" d="M1-2C0.45-2 0-1.55 0-1 0-0.45 0.45 0 1 0L1-2ZM29.08 0C29.64 0 30.08-0.45 30.08-1 30.08-1.55 29.64-2 29.08-2L29.08 0ZM1 0L29.08 0 29.08-2 1-2 1 0Z"/><path id="path9_stroke" d="M1-2C0.45-2 0-1.55 0-1 0-0.45 0.45 0 1 0L1-2ZM49.61 0C50.16 0 50.61-0.45 50.61-1 50.61-1.55 50.16-2 49.61-2L49.61 0ZM1 0L49.61 0 49.61-2 1-2 1 0Z"/><path id="path10_fill" fill-rule="evenodd" d="M12 7C12 9.76 9.76 12 7 12 4.24 12 2 9.76 2 7 2 4.24 4.24 2 7 2 9.76 2 12 4.24 12 7ZM14 7C14 10.87 10.87 14 7 14 3.13 14 0 10.87 0 7 0 3.13 3.13 0 7 0 10.87 0 14 3.13 14 7ZM34 31C34 33.76 31.76 36 29 36 26.24 36 24 33.76 24 31 24 28.24 26.24 26 29 26 31.76 26 34 28.24 34 31ZM36 31C36 34.87 32.87 38 29 38 25.13 38 22 34.87 22 31 22 27.13 25.13 24 29 24 32.87 24 36 27.13 36 31ZM64 50C66.76 50 69 47.76 69 45 69 42.24 66.76 40 64 40 61.24 40 59 42.24 59 45 59 47.76 61.24 50 64 50ZM64 52C67.87 52 71 48.87 71 45 71 41.13 67.87 38 64 38 60.13 38 57 41.13 57 45 57 48.87 60.13 52 64 52ZM89 68C89 70.76 86.76 73 84 73 81.24 73 79 70.76 79 68 79 65.24 81.24 63 84 63 86.76 63 89 65.24 89 68ZM91 68C91 71.87 87.87 75 84 75 80.13 75 77 71.87 77 68 77 64.13 80.13 61 84 61 87.87 61 91 64.13 91 68ZM116 61C118.76 61 121 58.76 121 56 121 53.24 118.76 51 116 51 113.24 51 111 53.24 111 56 111 58.76 113.24 61 116 61ZM116 63C119.87 63 123 59.87 123 56 123 52.13 119.87 49 116 49 112.13 49 109 52.13 109 56 109 59.87 112.13 63 116 63ZM23 63C23 65.76 20.76 68 18 68 15.24 68 13 65.76 13 63 13 60.24 15.24 58 18 58 20.76 58 23 60.24 23 63ZM25 63C25 66.87 21.87 70 18 70 14.13 70 11 66.87 11 63 11 59.13 14.13 56 18 56 21.87 56 25 59.13 25 63ZM130 22C132.76 22 135 19.76 135 17 135 14.24 132.76 12 130 12 127.24 12 125 14.24 125 17 125 19.76 127.24 22 130 22ZM130 24C133.87 24 137 20.87 137 17 137 13.13 133.87 10 130 10 126.13 10 123 13.13 123 17 123 20.87 126.13 24 130 24ZM83 7C83 9.76 80.76 12 78 12 75.24 12 73 9.76 73 7 73 4.24 75.24 2 78 2 80.76 2 83 4.24 83 7ZM85 7C85 10.87 81.87 14 78 14 74.13 14 71 10.87 71 7 71 3.13 74.13 0 78 0 81.87 0 85 3.13 85 7Z"/></defs></svg>