<svg xmlns="http://www.w3.org/2000/svg" xmlns:xlink="http://www.w3.org/1999/xlink" width="140" height="108" viewBox="0 0 140 108" version="1.1"><title>Icon-Privacy</title><desc>Created using Figma</desc><g id="Canvas" transform="translate(-8328 -1962)"><g id="Icon-Privacy"><g id="Group"><g id="Union"><use xlink:href="#path0_fill" transform="translate(8328 1979)" fill="url(#paint0_linear)"/></g><g id="Line"><use xlink:href="#path1_stroke" transform="matrix(-0.70247 0.711713 -0.70247 -0.711713 8450.37 1962)" fill="#F0F0F0"/></g></g></g></g><defs><linearGradient id="paint0_linear" x1="0" y1="0" x2="1" y2="0" gradientUnits="userSpaceOnUse" gradientTransform="matrix(163.148 83.353 -163.148 83.353 81.5742 -41.6765)"><stop offset="0" stop-color="#0072FF"/><stop offset="1" stop-color="#00C3FF"/></linearGradient><path id="path0_fill" fill-rule="evenodd" d="M2 2L138 2 138 70 2 70 2 2ZM0 2C0 0.9 0.9 0 2 0L138 0C139.1 0 140 0.9 140 2L140 70C140 71.1 139.1 72 138 72L2 72C0.9 72 0 71.1 0 70L0 2ZM45 36C45 22.19 56.19 11 70 11 77.21 11 83.71 14.05 88.27 18.93L89.73 17.57C84.8 12.3 77.79 9 70 9 55.09 9 43 21.09 43 36 43 43.91 46.41 51.03 51.83 55.97L53.17 54.49C48.15 49.92 45 43.33 45 36ZM18 58C18 60.21 16.21 62 14 62 11.79 62 10 60.21 10 58 10 55.79 11.79 54 14 54 16.21 54 18 55.79 18 58ZM14 18C16.21 18 18 16.21 18 14 18 11.79 16.21 10 14 10 11.79 10 10 11.79 10 14 10 16.21 11.79 18 14 18Z"/><path id="path1_stroke" d="M1-2C0.45-2 0-1.55 0-1 0-0.45 0.45 0 1 0L1-2ZM149 0C149.55 0 150-0.45 150-1 150-1.55 149.55-2 149-2L149 0ZM1 0L149 0 149-2 1-2 1 0Z"/></defs></svg>